<!DOCTYPE svg PUBLIC "-//W3C//DTD SVG 1.1//EN" "http://www.w3.org/Graphics/SVG/1.1/DTD/svg11.dtd">
<!-- Uploaded to: SVG Repo, www.svgrepo.com, Transformed by: SVG Repo Mixer Tools -->
<svg width="217px" height="217px" viewBox="-102.4 -102.4 716.80 716.80" xmlns="http://www.w3.org/2000/svg" fill="#1e1d20" stroke="#1e1d20" stroke-width="5.632">
<g id="SVGRepo_bgCarrier" stroke-width="0" transform="translate(10.240000000000009,10.240000000000009), scale(0.96)">
<rect x="-102.4" y="-102.4" width="716.80" height="716.80" rx="358.4" fill="#ffffff" strokewidth="0"/>
</g>
<g id="SVGRepo_tracerCarrier" stroke-linecap="round" stroke-linejoin="round" stroke="#241f31" stroke-width="9.216">
<path fill="#7ed0ec" d="M448 25c-8.4 0-15 6.61-15 15s6.6 15 15 15 15-6.61 15-15-6.6-15-15-15zm7 50.53L373.1 96l81.9 20.5V75.53zM439 131v292h18V135.5l-18-4.5zm-158 54v46h46v-46h-46zm-64 64v46h46v-46h-46zm64 0v46h46v-46h-46zm-128 64v46h46v-46h-46zm64 0v46h46v-46h-46zm64 0v46h46v-46h-46zM89 377v46h46v-46H89zm64 0v46h46v-46h-46zm64 0v46h46v-46h-46zm64 0v46h46v-46h-46zM25 441v46h46v-46H25zm64 0v46h46v-46H89zm64 0v46h46v-46h-46zm64 0v46h46v-46h-46zm64 0v46h46v-46h-46zm144 0v46h46v-46h-46z"/>
</g>
<g id="SVGRepo_iconCarrier">
<path fill="#7ed0ec" d="M448 25c-8.4 0-15 6.61-15 15s6.6 15 15 15 15-6.61 15-15-6.6-15-15-15zm7 50.53L373.1 96l81.9 20.5V75.53zM439 131v292h18V135.5l-18-4.5zm-158 54v46h46v-46h-46zm-64 64v46h46v-46h-46zm64 0v46h46v-46h-46zm-128 64v46h46v-46h-46zm64 0v46h46v-46h-46zm64 0v46h46v-46h-46zM89 377v46h46v-46H89zm64 0v46h46v-46h-46zm64 0v46h46v-46h-46zm64 0v46h46v-46h-46zM25 441v46h46v-46H25zm64 0v46h46v-46H89zm64 0v46h46v-46h-46zm64 0v46h46v-46h-46zm64 0v46h46v-46h-46zm144 0v46h46v-46h-46z"/>
</g>
</svg>